<?xml version="1.0" encoding="UTF-8"?>
<!-- Created with Inkscape (http://www.inkscape.org/) -->
<svg width="50mm" height="50mm" version="1.1" viewBox="0 0 50 50" xmlns="http://www.w3.org/2000/svg">
 <circle transform="scale(1,-1)" cx="25" cy="-25" r="25" fill="#00f"/>
 <path d="m25.36 24.911c9.44e-4 -1.3e-4 4.41e-4 0.0022 3.32e-4 0.0024-0.0025 0.0056-0.01083 0.0024-0.01395-5.31e-4 -0.01222-0.01165-0.0029-0.03122 0.0084-0.03941 0.02867-0.02067 0.06682-2.49e-4 0.08222 0.02692 0.03109 0.05486-0.0066 0.12045-0.0585 0.14521-0.09145 0.04362-0.19452-0.01846-0.23086-0.10534-0.05837-0.13954 0.03612-0.29118 0.16931-0.34139 0.20015-0.07545 0.41242 0.06022 0.47885 0.25209 0.09493 0.2742-0.09136 0.56003-0.35524 0.64512-0.36258 0.11692-0.73572-0.13011-0.84199-0.48018-0.1415-0.4661 0.17699-0.94108 0.62827-1.0711 0.58554-0.16875 1.1776 0.23247 1.3342 0.80078 0.19876 0.72164-0.29703 1.4468-0.99892 1.6326-0.87513 0.23161-1.75-0.37111-1.9679-1.2238-0.26738-1.0467 0.45512-2.0886 1.4767-2.3414 1.2369-0.30613 2.4638 0.54948 2.7546 1.7585 0.34795 1.4465-0.65456 2.8768-2.0702 3.2087-1.6761 0.39291-3.3289-0.77075-3.7049-2.413-0.44108-1.9263 0.89841-3.8212 2.7877-4.2447 2.1976-0.49253 4.3549 1.0379 4.829 3.1953 0.54732 2.4906-1.1895 4.9311-3.6367 5.4592-2.8058 0.60554-5.5507-1.3537-6.1363-4.1127-0.66723-3.1439 1.5307-6.2149 4.6243-6.8614 3.5053-0.73247 6.9248 1.7208 7.6357 5.1723 0.80132 3.8905-1.9243 7.6812-5.7575 8.4601-4.3001 0.87384-8.4852-2.1416-9.3359-6.3807-0.9501-4.7345 2.373-9.3377 7.0427-10.264 5.1942-1.0301 10.24 2.6186 11.245 7.7443 1.1141 5.6796-2.8789 11.192-8.4862 12.28-6.1913 1.2019-12.196-3.1541-13.371-9.2692-1.2937-6.7298 3.4445-13.252 10.094-14.518 7.2954-1.3895 14.36 3.7503 15.722 10.961 1.4894 7.8886-4.0718 15.523-11.872 16.984-8.5098 1.5934-16.741-4.4093-18.305-12.826-1.7017-9.1595 4.7629-18.014 13.825-19.685 9.8381-1.8141 19.344 5.1331 21.126 14.87 1.9309 10.546-5.5199 20.73-15.96 22.629-11.284 2.0521-22.175-5.9238-24.194-17.097-2.1776-12.051 6.3448-23.679 18.281-25.823 12.849-2.3076 25.242 6.7832 27.515 19.513" fill="none" stroke="#fff" stroke-width=".75"/>
</svg>
