<?xml version="1.0" encoding="UTF-8" standalone="no"?>
<!-- Created with Inkscape (http://www.inkscape.org/) -->

<svg
   width="203mm"
   height="202.99998mm"
   viewBox="0 0 203 202.99998"
   version="1.1"
   id="svg270"
   inkscape:export-filename="bitmap.svg"
   inkscape:export-xdpi="96"
   inkscape:export-ydpi="96"
   sodipodi:docname="experimentRogue.svg"
   inkscape:version="1.2.2 (b0a8486, 2022-12-01)"
   xmlns:inkscape="http://www.inkscape.org/namespaces/inkscape"
   xmlns:sodipodi="http://sodipodi.sourceforge.net/DTD/sodipodi-0.dtd"
   xmlns="http://www.w3.org/2000/svg"
   xmlns:svg="http://www.w3.org/2000/svg">
  <sodipodi:namedview
     id="namedview272"
     pagecolor="#505050"
     bordercolor="#ffffff"
     borderopacity="1"
     inkscape:showpageshadow="0"
     inkscape:pageopacity="0"
     inkscape:pagecheckerboard="1"
     inkscape:deskcolor="#505050"
     inkscape:document-units="mm"
     showgrid="false"
     inkscape:zoom="0.70737049"
     inkscape:cx="405.72798"
     inkscape:cy="373.92004"
     inkscape:window-width="1307"
     inkscape:window-height="767"
     inkscape:window-x="0"
     inkscape:window-y="25"
     inkscape:window-maximized="0"
     inkscape:current-layer="layer1" />
  <defs
     id="defs267" />
  <g
     inkscape:label="Layer 1"
     inkscape:groupmode="layer"
     id="layer1"
     transform="translate(-2.9533768,-41.966098)">
    <circle
       style="fill:none;stroke:#000000;stroke-width:3;stroke-dasharray:none"
       id="path497"
       cx="104.45338"
       cy="143.46609"
       r="100" />
    <path
       style="fill:#000000;stroke:#000000;stroke-width:3.01646;stroke-dasharray:none"
       d="M 72.886107,62.450519 89.544799,87.8781 36.539875,102.18111 Z"
       id="path1107" />
    <path
       style="fill:#000000;stroke:#000000;stroke-width:3.0188;stroke-dasharray:none"
       d="m 131.50739,62.454682 -16.65916,25.466273 53.00641,14.324785 z"
       id="path1107-0" />
    <path
       style="fill:none;stroke:#000000;stroke-width:2.5;stroke-dasharray:none"
       d="M 5.9785343,149.57634 203.17851,148.45807 202.86974,159.05618 8.2643963,161.92221 Z"
       id="path1135"
       sodipodi:nodetypes="ccccc" />
    <g
       id="g1250"
       transform="matrix(1.173761,0.53497346,-0.53497346,1.173761,-11.50227,-135.74602)">
      <path
         style="fill:none;stroke:#000000;stroke-width:2.5;stroke-dasharray:none"
         d="m 107.01791,173.06398 14.47585,41.10107 12.02013,3.36047 1.93873,-11.50313 -23.00627,-35.54339 z"
         id="path1241" />
      <path
         style="fill:#000000;stroke:#000000;stroke-width:1.5;stroke-dasharray:none"
         d="m 103.91594,182.88688 18.99956,-8.53041 3.36047,6.59168 -19.25806,8.65966 z"
         id="path1243" />
      <path
         style="fill:#000000;stroke:#000000;stroke-width:2;stroke-dasharray:none"
         d="M 133.64313,217.91327 115.03132,182.24064"
         id="path1245" />
    </g>
    <g
       id="g1258"
       transform="matrix(1.173761,0.53497346,-0.53497346,1.173761,149.34981,-136.201)">
      <path
         style="fill:none;stroke:#000000;stroke-width:2.5;stroke-dasharray:none"
         d="m 107.01791,173.06398 14.47585,41.10107 12.02013,3.36047 1.93873,-11.50313 -23.00627,-35.54339 z"
         id="path1252" />
      <path
         style="fill:#000000;stroke:#000000;stroke-width:1.5;stroke-dasharray:none"
         d="m 103.91594,182.88688 18.99956,-8.53041 3.36047,6.59168 -19.25806,8.65966 z"
         id="path1254" />
      <path
         style="fill:#000000;stroke:#000000;stroke-width:2;stroke-dasharray:none"
         d="M 133.64313,217.91327 115.03132,182.24064"
         id="path1256" />
    </g>
    <g
       id="g1266"
       transform="matrix(-1.2899269,0,0,-1.2899269,398.16887,420.76436)">
      <path
         style="fill:none;stroke:#000000;stroke-width:2.5;stroke-dasharray:none"
         d="m 107.01791,173.06398 14.47585,41.10107 12.02013,3.36047 1.93873,-11.50313 -23.00627,-35.54339 z"
         id="path1260" />
      <path
         style="fill:#000000;stroke:#000000;stroke-width:1.5;stroke-dasharray:none"
         d="m 103.91594,182.88688 18.99956,-8.53041 3.36047,6.59168 -19.25806,8.65966 z"
         id="path1262" />
      <path
         style="fill:#000000;stroke:#000000;stroke-width:2;stroke-dasharray:none"
         d="M 133.64313,217.91327 115.03132,182.24064"
         id="path1264" />
    </g>
  </g>
</svg>
