<?xml version="1.0" encoding="UTF-8" standalone="no"?>
<!-- Created with Inkscape (http://www.inkscape.org/) -->

<svg
   width="100mm"
   height="100mm"
   viewBox="0 0 100 100"
   version="1.1"
   id="svg5"
   inkscape:version="1.2.2 (b0a8486, 2022-12-01)"
   sodipodi:docname="mageBlue.svg"
   xmlns:inkscape="http://www.inkscape.org/namespaces/inkscape"
   xmlns:sodipodi="http://sodipodi.sourceforge.net/DTD/sodipodi-0.dtd"
   xmlns="http://www.w3.org/2000/svg"
   xmlns:svg="http://www.w3.org/2000/svg">
  <sodipodi:namedview
     id="namedview7"
     pagecolor="#505050"
     bordercolor="#ffffff"
     borderopacity="1"
     inkscape:showpageshadow="0"
     inkscape:pageopacity="0"
     inkscape:pagecheckerboard="1"
     inkscape:deskcolor="#505050"
     inkscape:document-units="mm"
     showgrid="false"
     inkscape:zoom="0.90028971"
     inkscape:cx="213.26468"
     inkscape:cy="172.1668"
     inkscape:window-width="1261"
     inkscape:window-height="690"
     inkscape:window-x="144"
     inkscape:window-y="26"
     inkscape:window-maximized="0"
     inkscape:current-layer="layer1" />
  <defs
     id="defs2" />
  <g
     inkscape:label="Layer 1"
     inkscape:groupmode="layer"
     id="layer1">
    <circle
       style="fill:#0000ff;stroke:#000000;stroke-width:0"
       id="path234"
       cx="50"
       cy="50"
       r="50" />
    <ellipse
       style="fill:#ffffff;stroke:#000000;stroke-width:0"
       id="path1002"
       cx="30.976566"
       cy="21.829924"
       rx="10.163406"
       ry="4.6560125"
       transform="matrix(0.97894373,-0.20413031,0.2141883,0.97679239,0,0)" />
    <ellipse
       style="fill:#ffffff;stroke:#000000;stroke-width:0"
       id="path1002-7"
       cx="-66.684181"
       cy="1.8568655"
       rx="10.141915"
       ry="4.4248719"
       transform="matrix(-0.98102013,-0.19390593,-0.22537726,0.97427157,0,0)" />
    <path
       sodipodi:type="spiral"
       style="fill:none;fill-rule:evenodd;stroke:#ffffff;stroke-width:2.00389;stroke-dasharray:none;stroke-opacity:1"
       id="path5532"
       sodipodi:cx="50.254654"
       sodipodi:cy="51.724091"
       sodipodi:expansion="5"
       sodipodi:revolution="9.0988293"
       sodipodi:radius="51.918983"
       sodipodi:argument="-46.344799"
       sodipodi:t0="0"
       d="m 50.254654,51.724091 c 0,-1e-6 0,-1e-6 10e-7,-1e-6 8e-6,-5e-6 1.6e-5,1.4e-5 1.7e-5,1.9e-5 1.9e-5,8e-5 -1.01e-4,1.2e-4 -1.57e-4,1.22e-4 -3.53e-4,1.3e-5 -4.83e-4,-4.53e-4 -4.53e-4,-7.25e-4 1.16e-4,-0.0011 0.0015,-0.0014 0.0024,-0.0012 0.0027,5.83e-4 0.0034,0.004 0.0027,0.0063 -0.0017,0.0058 -0.0091,0.0071 -0.0141,0.0053 -0.01129,-0.0042 -0.01357,-0.01848 -0.0094,-0.02844 0.0086,-0.02023 0.03456,-0.02395 0.05269,-0.01544 0.03408,0.01601 0.03985,0.06038 0.02412,0.09128 -0.0278,0.05461 -0.09984,0.0632 -0.149851,0.03604 -0.08399,-0.0456 -0.09634,-0.157752 -0.05195,-0.235314 0.07144,-0.12482 0.239989,-0.142056 0.356051,-0.07265 0.180145,0.10773 0.203619,0.353538 0.09903,0.522027 -0.157367,0.253517 -0.506617,0.284813 -0.744927,0.132068 -0.349025,-0.223707 -0.389982,-0.708778 -0.172811,-1.038301 0.310633,-0.471333 0.971004,-0.524069 1.4177,-0.222391 0.625717,0.422581 0.692648,1.305805 0.282026,1.900809 -0.564587,0.818105 -1.727328,0.901966 -2.507595,0.353014 -1.055109,-0.742316 -1.158983,-2.251446 -0.436736,-3.260435 0.962103,-1.344072 2.895866,-1.471404 4.184257,-0.534662 1.693101,1.230993 1.847727,3.680228 0.648345,5.306683 -1.55677,2.111102 -4.6262,2.29727 -6.65816,0.779427 -2.60782,-1.948003 -2.830218,-5.757587 -0.929635,-8.272102 2.414079,-3.193883 7.100421,-3.457656 10.185027,-1.100787 3.880828,2.965242 4.19161,8.68307 1.294789,12.436693 -3.612629,4.681149 -10.536332,5.045086 -15.070242,1.513639 -5.608328,-4.368308 -6.032101,-12.693539 -1.759423,-18.132329 5.245314,-6.676879 15.190656,-7.167734 21.673268,-2.034322 7.902381,6.25769 8.468151,18.066379 2.34061,25.747165 -7.42052,9.301516 -21.362239,9.950653 -30.412059,2.680652 C 23.00811,59.536174 22.266513,43.163444 30.84331,32.556085 41.106632,19.862917 60.238568,19.019093 72.610789,29.084143 87.335704,41.063158 88.292218,63.314687 76.539189,77.679125 62.622512,94.687953 36.856768,95.768347 20.251477,82.108159 0.68379805,66.010991 -0.5324255,36.300071 15.274782,17.182723 21.988067,9.0636293 31.258074,3.2447887 41.432864,0.5600714"
       transform="matrix(1.0209862,0,0,0.97565003,-0.63293692,0.67437378)" />
  </g>
</svg>
