<?xml version="1.0" encoding="UTF-8"?>
<!-- Created with Inkscape (http://www.inkscape.org/) -->
<svg width="100mm" height="100mm" version="1.1" viewBox="0 0 100 100" xmlns="http://www.w3.org/2000/svg">
 <defs>
  <clipPath id="clipPath367">
   <rect x=".37083" y=".37083" width="49.258" height="99.258" fill="#1a1a1a" stroke="#000" stroke-width=".74165"/>
  </clipPath>
 </defs>
 <g clip-path="url(#clipPath367)" stroke-width="0">
  <circle cx="50" cy="50" r="50" fill="#f00"/>
  <ellipse transform="matrix(.97894 -.20413 .21419 .97679 0 0)" cx="30.977" cy="21.83" rx="10.163" ry="4.656"/>
  <ellipse transform="matrix(-.98102 -.19391 -.22538 .97427 0 0)" cx="-66.684" cy="1.8569" rx="10.142" ry="4.4249"/>
  <path transform="matrix(1.021 0 0 .97565 -.63294 .67437)" d="m50.255 51.724c0-1e-6 0-1e-6 1e-6 -1e-6 8e-6 -5e-6 1.6e-5 1.4e-5 1.7e-5 1.9e-5 1.9e-5 8e-5 -1.01e-4 1.2e-4 -1.57e-4 1.22e-4 -3.53e-4 1.3e-5 -4.83e-4 -4.53e-4 -4.53e-4 -7.25e-4 1.16e-4 -0.0011 0.0015-0.0014 0.0024-0.0012 0.0027 5.83e-4 0.0034 4e-3 0.0027 0.0063-0.0017 0.0058-0.0091 0.0071-0.0141 0.0053-0.01129-0.0042-0.01357-0.01848-0.0094-0.02844 0.0086-0.02023 0.03456-0.02395 0.05269-0.01544 0.03408 0.01601 0.03985 0.06038 0.02412 0.09128-0.0278 0.05461-0.09984 0.0632-0.14985 0.03604-0.08399-0.0456-0.09634-0.15775-0.05195-0.23531 0.07144-0.12482 0.23999-0.14206 0.35605-0.07265 0.18014 0.10773 0.20362 0.35354 0.09903 0.52203-0.15737 0.25352-0.50662 0.28481-0.74493 0.13207-0.34902-0.22371-0.38998-0.70878-0.17281-1.0383 0.31063-0.47133 0.971-0.52407 1.4177-0.22239 0.62572 0.42258 0.69265 1.3058 0.28203 1.9008-0.56459 0.8181-1.7273 0.90197-2.5076 0.35301-1.0551-0.74232-1.159-2.2514-0.43674-3.2604 0.9621-1.3441 2.8959-1.4714 4.1843-0.53466 1.6931 1.231 1.8477 3.6802 0.64834 5.3067-1.5568 2.1111-4.6262 2.2973-6.6582 0.77943-2.6078-1.948-2.8302-5.7576-0.92964-8.2721 2.4141-3.1939 7.1004-3.4577 10.185-1.1008 3.8808 2.9652 4.1916 8.6831 1.2948 12.437-3.6126 4.6811-10.536 5.0451-15.07 1.5136-5.6083-4.3683-6.0321-12.694-1.7594-18.132 5.2453-6.6769 15.191-7.1677 21.673-2.0343 7.9024 6.2577 8.4682 18.066 2.3406 25.747-7.4205 9.3015-21.362 9.9507-30.412 2.6807-10.892-8.7501-11.634-25.123-3.0569-35.73 10.263-12.693 29.395-13.537 41.767-3.4719 14.725 11.979 15.681 34.231 3.9284 48.595-13.917 17.009-39.682 18.089-56.288 4.429-19.568-16.097-20.784-45.808-4.9767-64.925 6.7133-8.1191 15.983-13.938 26.158-16.623" fill="none" stroke="#000" stroke-width="2.0039"/>
 </g>
</svg>
