<?xml version="1.0" encoding="UTF-8" standalone="no"?>
<!-- Created with Inkscape (http://www.inkscape.org/) -->

<svg
   width="100mm"
   height="100mm"
   viewBox="0 0 100 100"
   version="1.1"
   id="svg5"
   inkscape:version="1.2.2 (b0a8486, 2022-12-01)"
   sodipodi:docname="mageHalfNHalf.svg"
   xml:space="preserve"
   inkscape:export-filename="mageHalfNHalf.png"
   inkscape:export-xdpi="65.023911"
   inkscape:export-ydpi="65.023911"
   xmlns:inkscape="http://www.inkscape.org/namespaces/inkscape"
   xmlns:sodipodi="http://sodipodi.sourceforge.net/DTD/sodipodi-0.dtd"
   xmlns="http://www.w3.org/2000/svg"
   xmlns:svg="http://www.w3.org/2000/svg"><sodipodi:namedview
     id="namedview7"
     pagecolor="#505050"
     bordercolor="#ffffff"
     borderopacity="1"
     inkscape:showpageshadow="0"
     inkscape:pageopacity="0"
     inkscape:pagecheckerboard="1"
     inkscape:deskcolor="#505050"
     inkscape:document-units="mm"
     showgrid="false"
     inkscape:zoom="0.90028971"
     inkscape:cx="214.37544"
     inkscape:cy="172.1668"
     inkscape:window-width="1261"
     inkscape:window-height="690"
     inkscape:window-x="144"
     inkscape:window-y="25"
     inkscape:window-maximized="0"
     inkscape:current-layer="svg5" /><defs
     id="defs2"><clipPath
       clipPathUnits="userSpaceOnUse"
       id="clipPath628"><rect
         style="fill:#1a1a1a;stroke:#000000;stroke-width:0.715328"
         id="rect630"
         width="49.284676"
         height="99.284676"
         x="50.357666"
         y="0.35766333" /></clipPath><clipPath
       id="clipPath367"><rect
         x=".37083"
         y=".37083"
         width="49.258"
         height="99.258"
         fill="#1a1a1a"
         stroke="#000"
         stroke-width=".74165"
         id="rect713" /></clipPath></defs><g
     inkscape:label="Layer 1"
     inkscape:groupmode="layer"
     id="layer1"
     clip-path="url(#clipPath628)"
     transform="matrix(1.0145141,0,0,1.0072048,-1.0884195,-0.36024022)"><circle
       style="fill:#0000ff;stroke:#000000;stroke-width:0"
       id="path234"
       cx="50"
       cy="50"
       r="50" /><ellipse
       style="fill:#ffffff;stroke:#000000;stroke-width:0"
       id="path1002"
       cx="30.976566"
       cy="21.829924"
       rx="10.163406"
       ry="4.6560125"
       transform="matrix(0.97894373,-0.20413031,0.2141883,0.97679239,0,0)" /><ellipse
       style="fill:#ffffff;stroke:#000000;stroke-width:0"
       id="path1002-7"
       cx="-66.684181"
       cy="1.8568655"
       rx="10.141915"
       ry="4.4248719"
       transform="matrix(-0.98102013,-0.19390593,-0.22537726,0.97427157,0,0)" /><path
       sodipodi:type="spiral"
       style="fill:none;fill-rule:evenodd;stroke:#ffffff;stroke-width:2.00389;stroke-dasharray:none;stroke-opacity:1"
       id="path5532"
       sodipodi:cx="50.254654"
       sodipodi:cy="51.724091"
       sodipodi:expansion="5"
       sodipodi:revolution="9.0988293"
       sodipodi:radius="51.918983"
       sodipodi:argument="-46.344799"
       sodipodi:t0="0"
       d="m 50.254654,51.724091 c 0,-1e-6 0,-1e-6 10e-7,-1e-6 8e-6,-5e-6 1.6e-5,1.4e-5 1.7e-5,1.9e-5 1.9e-5,8e-5 -1.01e-4,1.2e-4 -1.57e-4,1.22e-4 -3.53e-4,1.3e-5 -4.83e-4,-4.53e-4 -4.53e-4,-7.25e-4 1.16e-4,-0.0011 0.0015,-0.0014 0.0024,-0.0012 0.0027,5.83e-4 0.0034,0.004 0.0027,0.0063 -0.0017,0.0058 -0.0091,0.0071 -0.0141,0.0053 -0.01129,-0.0042 -0.01357,-0.01848 -0.0094,-0.02844 0.0086,-0.02023 0.03456,-0.02395 0.05269,-0.01544 0.03408,0.01601 0.03985,0.06038 0.02412,0.09128 -0.0278,0.05461 -0.09984,0.0632 -0.149851,0.03604 -0.08399,-0.0456 -0.09634,-0.157752 -0.05195,-0.235314 0.07144,-0.12482 0.239989,-0.142056 0.356051,-0.07265 0.180145,0.10773 0.203619,0.353538 0.09903,0.522027 -0.157367,0.253517 -0.506617,0.284813 -0.744927,0.132068 -0.349025,-0.223707 -0.389982,-0.708778 -0.172811,-1.038301 0.310633,-0.471333 0.971004,-0.524069 1.4177,-0.222391 0.625717,0.422581 0.692648,1.305805 0.282026,1.900809 -0.564587,0.818105 -1.727328,0.901966 -2.507595,0.353014 -1.055109,-0.742316 -1.158983,-2.251446 -0.436736,-3.260435 0.962103,-1.344072 2.895866,-1.471404 4.184257,-0.534662 1.693101,1.230993 1.847727,3.680228 0.648345,5.306683 -1.55677,2.111102 -4.6262,2.29727 -6.65816,0.779427 -2.60782,-1.948003 -2.830218,-5.757587 -0.929635,-8.272102 2.414079,-3.193883 7.100421,-3.457656 10.185027,-1.100787 3.880828,2.965242 4.19161,8.68307 1.294789,12.436693 -3.612629,4.681149 -10.536332,5.045086 -15.070242,1.513639 -5.608328,-4.368308 -6.032101,-12.693539 -1.759423,-18.132329 5.245314,-6.676879 15.190656,-7.167734 21.673268,-2.034322 7.902381,6.25769 8.468151,18.066379 2.34061,25.747165 -7.42052,9.301516 -21.362239,9.950653 -30.412059,2.680652 C 23.00811,59.536174 22.266513,43.163444 30.84331,32.556085 41.106632,19.862917 60.238568,19.019093 72.610789,29.084143 87.335704,41.063158 88.292218,63.314687 76.539189,77.679125 62.622512,94.687953 36.856768,95.768347 20.251477,82.108159 0.68379805,66.010991 -0.5324255,36.300071 15.274782,17.182723 21.988067,9.0636293 31.258074,3.2447887 41.432864,0.5600714"
       transform="matrix(1.0209862,0,0,0.97565003,-0.63293692,0.67437378)" /></g><g
     clip-path="url(#clipPath367)"
     stroke-width="0"
     id="g726"
     transform="matrix(1.0150636,0,0,1.0074754,-0.37641602,-0.37360212)"><circle
       cx="50"
       cy="50"
       r="50"
       fill="#ff0000"
       id="circle718" /><ellipse
       transform="matrix(0.97894,-0.20413,0.21419,0.97679,0,0)"
       cx="30.976999"
       cy="21.83"
       rx="10.163"
       ry="4.6560001"
       id="ellipse720" /><ellipse
       transform="matrix(-0.98102,-0.19391,-0.22538,0.97427,0,0)"
       cx="-66.683998"
       cy="1.8569"
       rx="10.142"
       ry="4.4249001"
       id="ellipse722" /><path
       transform="matrix(1.021,0,0,0.97565,-0.63294,0.67437)"
       d="m 50.255,51.724 c 0,-10e-7 0,-10e-7 10e-7,-10e-7 8e-6,-5e-6 1.6e-5,1.4e-5 1.7e-5,1.9e-5 1.9e-5,8e-5 -1.01e-4,1.2e-4 -1.57e-4,1.22e-4 -3.53e-4,1.3e-5 -4.83e-4,-4.53e-4 -4.53e-4,-7.25e-4 1.16e-4,-0.0011 0.0015,-0.0014 0.0024,-0.0012 0.0027,5.83e-4 0.0034,0.004 0.0027,0.0063 -0.0017,0.0058 -0.0091,0.0071 -0.0141,0.0053 -0.01129,-0.0042 -0.01357,-0.01848 -0.0094,-0.02844 0.0086,-0.02023 0.03456,-0.02395 0.05269,-0.01544 0.03408,0.01601 0.03985,0.06038 0.02412,0.09128 -0.0278,0.05461 -0.09984,0.0632 -0.14985,0.03604 -0.08399,-0.0456 -0.09634,-0.15775 -0.05195,-0.23531 0.07144,-0.12482 0.23999,-0.14206 0.35605,-0.07265 0.18014,0.10773 0.20362,0.35354 0.09903,0.52203 -0.15737,0.25352 -0.50662,0.28481 -0.74493,0.13207 -0.34902,-0.22371 -0.38998,-0.70878 -0.17281,-1.0383 0.31063,-0.47133 0.971,-0.52407 1.4177,-0.22239 0.62572,0.42258 0.69265,1.3058 0.28203,1.9008 -0.56459,0.8181 -1.7273,0.90197 -2.5076,0.35301 -1.0551,-0.74232 -1.159,-2.2514 -0.43674,-3.2604 0.9621,-1.3441 2.8959,-1.4714 4.1843,-0.53466 1.6931,1.231 1.8477,3.6802 0.64834,5.3067 -1.5568,2.1111 -4.6262,2.2973 -6.6582,0.77943 -2.6078,-1.948 -2.8302,-5.7576 -0.92964,-8.2721 2.4141,-3.1939 7.1004,-3.4577 10.185,-1.1008 3.8808,2.9652 4.1916,8.6831 1.2948,12.437 -3.6126,4.6811 -10.536,5.0451 -15.07,1.5136 -5.6083,-4.3683 -6.0321,-12.694 -1.7594,-18.132 5.2453,-6.6769 15.191,-7.1677 21.673,-2.0343 7.9024,6.2577 8.4682,18.066 2.3406,25.747 -7.4205,9.3015 -21.362,9.9507 -30.412,2.6807 -10.892,-8.7501 -11.634,-25.123 -3.0569,-35.73 10.263,-12.693 29.395,-13.537 41.767,-3.4719 14.725,11.979 15.681,34.231 3.9284,48.595 -13.917,17.009 -39.682,18.089 -56.288,4.429 -19.568,-16.097 -20.784,-45.808 -4.9767,-64.925 6.7133,-8.1191 15.983,-13.938 26.158,-16.623"
       fill="none"
       stroke="#000000"
       stroke-width="2.0039"
       id="path724" /></g></svg>
